<?xml version="1.0" encoding="UTF-8"?>
<svg version="1.1" xmlns="http://www.w3.org/2000/svg" width="226" height="223">
<path d="M0 0 C74.58 0 149.16 0 226 0 C226 73.59 226 147.18 226 223 C151.42 223 76.84 223 0 223 C0 149.41 0 75.82 0 0 Z " fill="#FEFEFE" transform="translate(0,0)"/>
<path d="M0 0 C42.24 0 84.48 0 128 0 C128 41.25 128 82.5 128 125 C96.19194977 125.04030303 96.19194977 125.04030303 82.90429688 125.04882812 C73.71475672 125.05477114 64.52522571 125.06177287 55.33569336 125.07543945 C48.64422011 125.08538623 41.95275424 125.09185341 35.2612738 125.09408849 C31.71604399 125.09539561 28.17083532 125.09848153 24.62561226 125.10573006 C20.67431355 125.1137438 16.7230358 125.11399114 12.77172852 125.11352539 C11.58778 125.11712067 10.40383148 125.12071594 9.18400574 125.12442017 C8.11403351 125.1230455 7.04406128 125.12167084 5.94166565 125.12025452 C4.53823583 125.12163721 4.53823583 125.12163721 3.1064539 125.12304783 C1 125 1 125 0 124 C-0.09600136 122.393108 -0.12187889 120.78198231 -0.12025452 119.17222595 C-0.12163201 118.12967872 -0.12300951 117.08713148 -0.12442875 116.01299191 C-0.12083064 114.85491307 -0.11723253 113.69683424 -0.11352539 112.50366211 C-0.11364593 111.27443055 -0.11376646 110.04519899 -0.11389065 108.77871799 C-0.1132656 105.44304334 -0.10830655 102.10743022 -0.10128021 98.77176666 C-0.09560007 95.64573767 -0.0953179 92.5197103 -0.09460449 89.39367676 C-0.08934983 80.24161309 -0.07538877 71.0895561 -0.0625 61.9375 C-0.041875 41.498125 -0.02125 21.05875 0 0 Z " fill="#FBF3F3" transform="translate(49,56)"/>
<path d="M0 0 C0.99 0.33 1.98 0.66 3 1 C3 20.14 3 39.28 3 59 C22.14 59 41.28 59 61 59 C61 60.32 61 61.64 61 63 C41.86 63 22.72 63 3 63 C3 82.14 3 101.28 3 121 C22.14 121 41.28 121 61 121 C61 121.33 61 121.66 61 122 C45.11044873 122.02332924 29.22090206 122.0409793 13.33133793 122.05181217 C5.95404044 122.05697508 -1.42324643 122.06401767 -8.80053711 122.07543945 C-15.2283218 122.08538646 -21.6560988 122.09185347 -28.08389097 122.09408849 C-31.48939278 122.09539557 -34.89487258 122.09848125 -38.30036736 122.10573006 C-42.09601041 122.11293606 -45.89160712 122.11399113 -49.68725586 122.11352539 C-50.82445068 122.11712067 -51.96164551 122.12071594 -53.13330078 122.12442017 C-54.16120224 122.1230455 -55.1891037 122.12167084 -56.24815369 122.12025452 C-57.14690185 122.12117631 -58.04565001 122.1220981 -58.97163296 122.12304783 C-61 122 -61 122 -62 121 C-62.09588124 119.44379604 -62.12188033 117.88323546 -62.12025452 116.32408142 C-62.12162918 115.31300827 -62.12300385 114.30193512 -62.12442017 113.26022339 C-62.12082489 112.14173004 -62.11722961 111.02323669 -62.11352539 109.87084961 C-62.11367142 108.70027512 -62.11381744 107.52970062 -62.1139679 106.32365417 C-62.11338895 103.10479057 -62.10835991 99.88596996 -62.10139394 96.66711497 C-62.09515957 93.306526 -62.09455654 89.94593627 -62.09336853 86.58534241 C-62.09025546 80.21757658 -62.0820424 73.84982784 -62.07201904 67.48206955 C-62.06085715 60.23430271 -62.05534726 52.98653507 -62.05032361 45.73876178 C-62.03985977 30.82583165 -62.0222608 15.91291753 -62 1 C-61.34 1 -60.68 1 -60 1 C-60 20.14 -60 39.28 -60 59 C-40.53 59 -21.06 59 -1 59 C-1.03961145 39.95713926 -1.03961145 39.95713926 -1.09008789 20.91430664 C-1.0930068 18.53792363 -1.09555541 16.16154012 -1.09765625 13.78515625 C-1.10277222 12.537948 -1.10788818 11.29073975 -1.11315918 10.0057373 C-1.11334045 8.23958069 -1.11334045 8.23958069 -1.11352539 6.43774414 C-1.115746 5.40960098 -1.11796661 4.38145782 -1.12025452 3.32215881 C-1 1 -1 1 0 0 Z " fill="#FDFCF8" transform="translate(113,58)"/>
<path d="M0 0 C0.33 0 0.66 0 1 0 C2.01116063 39.68267616 2.08052236 79.30247682 2 119 C-37.93 119 -77.86 119 -119 119 C-119 118.67 -119 118.34 -119 118 C-99.2 117.67 -79.4 117.34 -59 117 C-59 97.86 -59 78.72 -59 59 C-39.86 59 -20.72 59 -1 59 C-0.67 39.53 -0.34 20.06 0 0 Z " fill="#FBF7F9" transform="translate(175,62)"/>
<path d="M0 0 C19.14 0 38.28 0 58 0 C58 18.81 58 37.62 58 57 C38.86 57 19.72 57 0 57 C0 38.19 0 19.38 0 0 Z " fill="#F6F6F8" transform="translate(116,60)"/>
<path d="M0 0 C42.24 0 84.48 0 128 0 C128 57 128 57 125 61 C125 42.19 125 23.38 125 4 C118.77189453 4.01740234 118.77189453 4.01740234 112.41796875 4.03515625 C109.10840129 4.04158669 105.79883559 4.04700969 102.48926544 4.05175018 C98.99502815 4.05703195 95.5008151 4.06409092 92.0065918 4.07543945 C87.99788172 4.08837754 83.98919733 4.09323569 79.98046875 4.09765625 C78.72727341 4.10281754 77.47407806 4.10797882 76.1829071 4.11329651 C74.44144157 4.11340981 74.44144157 4.11340981 72.66479492 4.11352539 C71.64109299 4.115746 70.61739105 4.11796661 69.56266785 4.12025452 C67 4 67 4 64 3 C63.67 22.14 63.34 41.28 63 61 C43.53 61 24.06 61 4 61 C4 41.86 4 22.72 4 3 C3.34 3 2.68 3 2 3 C2.33 42.6 2.66 82.2 3 123 C4.32 123.66 5.64 124.32 7 125 C5.00045254 125.04254356 2.99958364 125.04080783 1 125 C0 124 0 124 -0.12304783 121.94039822 C-0.12212604 121.02690137 -0.12120424 120.11340452 -0.12025452 119.17222595 C-0.12163201 118.12967872 -0.12300951 117.08713148 -0.12442875 116.01299191 C-0.12083064 114.85491307 -0.11723253 113.69683424 -0.11352539 112.50366211 C-0.11364593 111.27443055 -0.11376646 110.04519899 -0.11389065 108.77871799 C-0.1132656 105.44304334 -0.10830655 102.10743022 -0.10128021 98.77176666 C-0.09560007 95.64573767 -0.0953179 92.5197103 -0.09460449 89.39367676 C-0.08934983 80.24161309 -0.07538877 71.0895561 -0.0625 61.9375 C-0.041875 41.498125 -0.02125 21.05875 0 0 Z M7 6 C7 23.16 7 40.32 7 58 C24.16 58 41.32 58 59 58 C59 40.84 59 23.68 59 6 C41.84 6 24.68 6 7 6 Z " fill="#ECE8E9" transform="translate(49,56)"/>
<path d="M0 0 C13.2 0 26.4 0 40 0 C40 0.99 40 1.98 40 3 C28.12 3 16.24 3 4 3 C4 19.5 4 36 4 53 C5.65 51.02 7.3 49.04 9 47 C11.91324185 46.02891938 13.76053728 45.88906875 16.7890625 45.89453125 C17.73136719 45.87970703 18.67367187 45.86488281 19.64453125 45.84960938 C21.60792764 45.82516342 23.57166118 45.81948877 25.53515625 45.83398438 C32.86864436 45.66980181 37.45505624 43.82062434 43 39 C47.27183942 34.35053941 49.69520597 29.13253193 51 23 C50.49210937 23.34933594 49.98421875 23.69867188 49.4609375 24.05859375 C45.30594344 26.80524712 42.09115195 28.6181636 37 29 C37.99249464 20.02703823 41.52077342 10.47922658 48 4 C49.99958364 3.95919217 52.00045254 3.95745644 54 4 C54.33 3.67 54.66 3.34 55 3 C53.081875 3.0309375 53.081875 3.0309375 51.125 3.0625 C47.25 3.125 47.25 3.125 45 2 C45 1.34 45 0.68 45 0 C49.29 0 53.58 0 58 0 C58 18.81 58 37.62 58 57 C38.86 57 19.72 57 0 57 C0 38.19 0 19.38 0 0 Z " fill="#F8EFCC" transform="translate(53,122)"/>
<path d="M0 0 C0.99 0.33 1.98 0.66 3 1 C3 20.14 3 39.28 3 59 C22.14 59 41.28 59 61 59 C61 60.32 61 61.64 61 63 C41.86 63 22.72 63 3 63 C3 82.14 3 101.28 3 121 C22.14 121 41.28 121 61 121 C61 121.33 61 121.66 61 122 C45.11044873 122.02332924 29.22090206 122.0409793 13.33133793 122.05181217 C5.95404044 122.05697508 -1.42324643 122.06401767 -8.80053711 122.07543945 C-15.2283218 122.08538646 -21.6560988 122.09185347 -28.08389097 122.09408849 C-31.48939278 122.09539557 -34.89487258 122.09848125 -38.30036736 122.10573006 C-42.09601041 122.11293606 -45.89160712 122.11399113 -49.68725586 122.11352539 C-50.82445068 122.11712067 -51.96164551 122.12071594 -53.13330078 122.12442017 C-54.16120224 122.1230455 -55.1891037 122.12167084 -56.24815369 122.12025452 C-57.14690185 122.12117631 -58.04565001 122.1220981 -58.97163296 122.12304783 C-61 122 -61 122 -62 121 C-62.09588124 119.44379604 -62.12188033 117.88323546 -62.12025452 116.32408142 C-62.12162918 115.31300827 -62.12300385 114.30193512 -62.12442017 113.26022339 C-62.12082489 112.14173004 -62.11722961 111.02323669 -62.11352539 109.87084961 C-62.11367142 108.70027512 -62.11381744 107.52970062 -62.1139679 106.32365417 C-62.11338895 103.10479057 -62.10835991 99.88596996 -62.10139394 96.66711497 C-62.09515957 93.306526 -62.09455654 89.94593627 -62.09336853 86.58534241 C-62.09025546 80.21757658 -62.0820424 73.84982784 -62.07201904 67.48206955 C-62.06085715 60.23430271 -62.05534726 52.98653507 -62.05032361 45.73876178 C-62.03985977 30.82583165 -62.0222608 15.91291753 -62 1 C-61.34 1 -60.68 1 -60 1 C-60 20.14 -60 39.28 -60 59 C-40.53 59 -21.06 59 -1 59 C-1.03961145 39.95713926 -1.03961145 39.95713926 -1.09008789 20.91430664 C-1.0930068 18.53792363 -1.09555541 16.16154012 -1.09765625 13.78515625 C-1.10277222 12.537948 -1.10788818 11.29073975 -1.11315918 10.0057373 C-1.11334045 8.23958069 -1.11334045 8.23958069 -1.11352539 6.43774414 C-1.115746 5.40960098 -1.11796661 4.38145782 -1.12025452 3.32215881 C-1 1 -1 1 0 0 Z M-60 63 C-60 82.14 -60 101.28 -60 121 C-40.86 121 -21.72 121 -2 121 C-2 101.86 -2 82.72 -2 63 C-21.14 63 -40.28 63 -60 63 Z " fill="#FCFBFB" transform="translate(113,58)"/>
<path d="M0 0 C0.33 0 0.66 0 1 0 C2.01116063 39.68267616 2.08052236 79.30247682 2 119 C-37.93 119 -77.86 119 -119 119 C-119 118.67 -119 118.34 -119 118 C-99.2 117.67 -79.4 117.34 -59 117 C-59 97.86 -59 78.72 -59 59 C-39.86 59 -20.72 59 -1 59 C-0.67 39.53 -0.34 20.06 0 0 Z M-56 62 C-56.33 67.61 -56.66 73.22 -57 79 C-57.33 80.65 -57.66 82.3 -58 84 C-57.34 84 -56.68 84 -56 84 C-56 93.9 -56 103.8 -56 114 C-39.17 114 -22.34 114 -5 114 C-5 104.43 -5 94.86 -5 85 C-4.34 85 -3.68 85 -3 85 C-3.495 83.02 -3.495 83.02 -4 81 C-4.33 74.73 -4.66 68.46 -5 62 C-21.83 62 -38.66 62 -56 62 Z " fill="#EBDFE8" transform="translate(175,62)"/>
<path d="M0 0 C15.51 0 31.02 0 47 0 C47 21.52717391 47 21.52717391 43.5625 25.77734375 C39.22222222 29 39.22222222 29 37 29 C36.79333747 23.93676791 37.19113429 19.76017293 39 15 C39.99 14.67 40.98 14.34 42 14 C41.505 12.515 41.505 12.515 41 11 C38.98491642 10.26676204 38.98491642 10.26676204 37 10 C37.144375 10.94875 37.28875 11.8975 37.4375 12.875 C37.51930396 18.56621804 33.35705239 22.74373715 30 27 C28 26 28 26 27.1484375 23.59375 C25.55071616 17.20286466 24.67075606 11.58487887 25 5 C24.01 5 23.02 5 22 5 C22.103125 6.03125 22.20625 7.0625 22.3125 8.125 C22.37215597 14.73488166 19.3812573 20.94480286 17 27 C16.34 27 15.68 27 15 27 C13.35 23.37 11.7 19.74 10 16 C9.67 19.96 9.34 23.92 9 28 C5 26 5 26 0 20 C0 13.4 0 6.8 0 0 Z " fill="#B6228B" transform="translate(121,126)"/>
<path d="M0 0 C5.94 0 11.88 0 18 0 C18 15.84 18 31.68 18 48 C12.06 48 6.12 48 0 48 C0 40.41 0 32.82 0 25 C4.62 25 9.24 25 14 25 C14 21.04 14 17.08 14 13 C9.38 13 4.76 13 0 13 C0 8.71 0 4.42 0 0 Z " fill="#EA1B26" transform="translate(88,64)"/>
<path d="M0 0 C5.94 0 11.88 0 18 0 C18 4.29 18 8.58 18 13 C13.38 13 8.76 13 4 13 C4 16.96 4 20.92 4 25 C8.62 25 13.24 25 18 25 C18 32.59 18 40.18 18 48 C12.06 48 6.12 48 0 48 C0 32.16 0 16.32 0 0 Z " fill="#EA1C28" transform="translate(58,64)"/>
<path d="M0 0 C3.61246888 3.61246888 4.125 9.03845507 4.125 14 C4.08375 14.99 4.0425 15.98 4 17 C4.99580078 16.36771484 4.99580078 16.36771484 6.01171875 15.72265625 C7.33623047 14.90087891 7.33623047 14.90087891 8.6875 14.0625 C9.55761719 13.51722656 10.42773438 12.97195312 11.32421875 12.41015625 C18.05582814 8.86254897 25.86089018 9.32856999 33.03515625 11.2890625 C36.28796319 12.46602247 39.07074607 14.16921629 42 16 C42.18175781 14.89591797 42.18175781 14.89591797 42.3671875 13.76953125 C42.53476563 12.79371094 42.70234375 11.81789062 42.875 10.8125 C43.03742188 9.84957031 43.19984375 8.88664063 43.3671875 7.89453125 C43.98039517 5.08967396 44.85666343 2.62775253 46 0 C46.33 0 46.66 0 47 0 C47 7.92 47 15.84 47 24 C31.49 24 15.98 24 0 24 C0 16.08 0 8.16 0 0 Z " fill="#B41B89" transform="translate(121,150)"/>
<path d="M0 0 C19.14 0 38.28 0 58 0 C58 18.81 58 37.62 58 57 C38.86 57 19.72 57 0 57 C0 38.19 0 19.38 0 0 Z M3 2 C3 19.16 3 36.32 3 54 C20.16 54 37.32 54 55 54 C55 36.84 55 19.68 55 2 C37.84 2 20.68 2 3 2 Z " fill="#353695" transform="translate(116,60)"/>
<path d="M0 0 C19.14 0 38.28 0 58 0 C58 18.81 58 37.62 58 57 C38.86 57 19.72 57 0 57 C0 38.19 0 19.38 0 0 Z M3 2 C3 19.16 3 36.32 3 54 C20.16 54 37.32 54 55 54 C55 36.84 55 19.68 55 2 C37.84 2 20.68 2 3 2 Z " fill="#E71D28" transform="translate(53,60)"/>
<path d="M0 0 C13.2 0 26.4 0 40 0 C39.67 0.66 39.34 1.32 39 2 C27.12 2 15.24 2 3 2 C3 19.16 3 36.32 3 54 C20.16 54 37.32 54 55 54 C55 37.17 55 20.34 55 3 C52.36 3 49.72 3 47 3 C46.34 2.67 45.68 2.34 45 2 C45 1.34 45 0.68 45 0 C49.29 0 53.58 0 58 0 C58 18.81 58 37.62 58 57 C38.86 57 19.72 57 0 57 C0 38.19 0 19.38 0 0 Z " fill="#F8B71A" transform="translate(53,122)"/>
<path d="M0 0 C0 15.84 0 31.68 0 48 C-3.3 48 -6.6 48 -10 48 C-12.875 44.6875 -12.875 44.6875 -13.97265625 42.73046875 C-14.95312491 40.78749898 -14.95312491 40.78749898 -17.3125 39.5 C-19 38 -19 38 -19.625 34.8125 C-18.89558605 30.36307489 -17.44013906 28.56779404 -14.65625 25.16015625 C-10.08748749 19.2013693 -7.56005561 12.35658859 -5.7734375 5.12890625 C-4.6744755 2.10398561 -3.38158145 0 0 0 Z " fill="#323092" transform="translate(169,64)"/>
<path d="M0 0 C18.81 0 37.62 0 57 0 C57 18.48 57 36.96 57 56 C38.19 56 19.38 56 0 56 C0 37.52 0 19.04 0 0 Z M3 2 C2.67 7.61 2.34 13.22 2 19 C1.67 20.65 1.34 22.3 1 24 C1.66 24 2.32 24 3 24 C3 33.9 3 43.8 3 54 C19.83 54 36.66 54 54 54 C54 44.43 54 34.86 54 25 C54.66 25 55.32 25 56 25 C55.505 23.02 55.505 23.02 55 21 C54.67 14.73 54.34 8.46 54 2 C37.17 2 20.34 2 3 2 Z " fill="#B00481" transform="translate(116,122)"/>
<path d="M0 0 C0.66 0 1.32 0 2 0 C2.21092285 0.52843506 2.4218457 1.05687012 2.63916016 1.60131836 C8.43840679 16.91703486 8.43840679 16.91703486 18 30 C17.95207124 33.01951206 17.91325237 35.19044017 17 38 C14.625 39.625 14.625 39.625 12 41 C10.17370206 44.06680799 10.17370206 44.06680799 9 47 C6.03 47 3.06 47 0 47 C0 31.49 0 15.98 0 0 Z " fill="#2E2D92" transform="translate(121,65)"/>
<path d="M0 0 C10.56 0 21.12 0 32 0 C29.09132226 8.72603323 25.03832108 16.82769158 18 23 C15.78515625 23.71875 15.78515625 23.71875 14 24 C15.38361869 19.57242019 17.84242262 16.37264785 20.66015625 12.76953125 C23.18379603 9.43656093 23.08971102 7.12670671 23 3 C22.32324219 3.88429687 21.64648438 4.76859375 20.94921875 5.6796875 C18.00704492 9.21195541 14.62196596 11.60127856 10.8125 14.125 C5.21379881 17.54365872 5.21379881 17.54365872 2 23 C2.29336498 27.1804509 2.65924075 29.48886112 5 33 C4.62105285 36.66315582 2.68482538 39.77685579 1 43 C0.67 43 0.34 43 0 43 C0 28.81 0 14.62 0 0 Z " fill="#FAB40F" transform="translate(58,126)"/>
<path d="M0 0 C0.33 0 0.66 0 1 0 C1 9.9 1 19.8 1 30 C-14.84 30 -30.68 30 -47 30 C-43 25 -43 25 -40 24 C-38.40522389 23.92080555 -36.80767614 23.89165124 -35.2109375 23.89453125 C-34.26863281 23.87970703 -33.32632813 23.86488281 -32.35546875 23.84960938 C-30.39207236 23.82516342 -28.42833882 23.81948877 -26.46484375 23.83398438 C-19.13164965 23.66980839 -14.54558112 21.81942727 -9 17 C-4.51926159 12.11649858 -2.04060052 6.23516824 0 0 Z " fill="#FAB512" transform="translate(105,144)"/>
<path d="M0 0 C16.83 0 33.66 0 51 0 C51.495 9.405 51.495 9.405 52 19 C52.495 20.98 52.495 20.98 53 23 C52.34 23 51.68 23 51 23 C51 32.57 51 42.14 51 52 C34.17 52 17.34 52 0 52 C0 42.1 0 32.2 0 22 C-0.66 22 -1.32 22 -2 22 C-1.67 20.35 -1.34 18.7 -1 17 C-0.67 11.39 -0.34 5.78 0 0 Z M2 2 C0.50928802 19.76393202 0.50928802 19.76393202 4 26 C3.34 26 2.68 26 2 26 C2 33.92 2 41.84 2 50 C17.51 50 33.02 50 49 50 C49.0309375 44.2146875 49.0309375 44.2146875 49.0625 38.3125 C49.071604 37.10505127 49.08070801 35.89760254 49.09008789 34.65356445 C49.09258545 33.691521 49.09508301 32.72947754 49.09765625 31.73828125 C49.10289307 30.75899658 49.10812988 29.77971191 49.11352539 28.77075195 C49.07506878 25.98752602 49.07506878 25.98752602 48.43139648 23.26635742 C48 21 48 21 49 19 C49 13.39 49 7.78 49 2 C33.49 2 17.98 2 2 2 Z " fill="#F3E5EF" transform="translate(119,124)"/>
<path d="M0 0 C6.93 0 13.86 0 21 0 C21.12375 4.7953125 21.12375 4.7953125 21.25 9.6875 C21.28641602 10.68612061 21.32283203 11.68474121 21.36035156 12.71362305 C21.41321877 16.94513167 21.38194797 19.36557795 19.15625 23.0625 C16.8592316 25.12648755 14.93993435 26.10168673 12 27 C11.79333747 21.93676791 12.19113429 17.76017293 14 13 C14.99 12.67 15.98 12.34 17 12 C16.67 11.01 16.34 10.02 16 9 C13.98491642 8.26676204 13.98491642 8.26676204 12 8 C12.144375 8.94875 12.28875 9.8975 12.4375 10.875 C12.51930396 16.56621804 8.35705239 20.74373715 5 25 C3 24 3 24 2.1484375 21.59375 C0.54718777 15.18875107 -0.3140901 9.59589218 0 3 C0 2.01 0 1.02 0 0 Z " fill="#B6228B" transform="translate(146,128)"/>
<path d="M0 0 C0.06955197 7.36273052 0.12283745 14.72539005 0.15543652 22.08838272 C0.17108358 25.50744492 0.1923037 28.92628213 0.22631836 32.34521484 C0.26518985 36.27699071 0.27971721 40.2086759 0.29296875 44.140625 C0.30845261 45.36678528 0.32393646 46.59294556 0.33988953 47.85626221 C0.34011612 48.99714294 0.34034271 50.13802368 0.34057617 51.31347656 C0.35056892 52.81905121 0.35056892 52.81905121 0.36076355 54.3550415 C0 57 0 57 -3 61 C-3 42.19 -3 23.38 -3 4 C-7.16367188 4.01160156 -11.32734375 4.02320313 -15.6171875 4.03515625 C-18.93228627 4.04158495 -22.24738329 4.04700856 -25.56248474 4.05175018 C-29.06461839 4.0570359 -32.56672793 4.0641021 -36.06884766 4.07543945 C-40.08496334 4.08835974 -44.1010534 4.0932324 -48.1171875 4.09765625 C-50.00472244 4.10539818 -50.00472244 4.10539818 -51.9303894 4.11329651 C-53.09144196 4.11337204 -54.25249451 4.11344757 -55.44873047 4.11352539 C-56.47465302 4.115746 -57.50057556 4.11796661 -58.55758667 4.12025452 C-61 4 -61 4 -63 3 C-64.97034488 2.87983328 -66.94464936 2.82264667 -68.91845703 2.79467773 C-70.15959259 2.77473251 -71.40072815 2.75478729 -72.67947388 2.73423767 C-74.0389188 2.7172534 -75.39836505 2.70037459 -76.7578125 2.68359375 C-78.14501567 2.66302419 -79.53221257 2.64202772 -80.91940308 2.62062073 C-84.57227505 2.56540019 -88.22520359 2.51599089 -91.87817383 2.46777344 C-95.60503174 2.41755825 -99.33180741 2.36187229 -103.05859375 2.30664062 C-110.37232621 2.19905929 -117.68612701 2.09761432 -125 2 C-125 1.67 -125 1.34 -125 1 C-109.14498865 0.86946678 -93.28997615 0.73907387 -77.43496227 0.60884857 C-70.07342156 0.54838121 -62.71188124 0.48786772 -55.3503418 0.42724609 C-48.93499062 0.37441636 -42.51963875 0.32167271 -36.10428602 0.26903296 C-32.7065544 0.2411506 -29.30882316 0.21322478 -25.91109276 0.18519592 C-22.12066107 0.15394918 -18.33022816 0.12285457 -14.53979492 0.09179688 C-13.40979065 0.08244614 -12.27978638 0.0730954 -11.11553955 0.0634613 C-10.08488876 0.05504715 -9.05423798 0.046633 -7.99235535 0.03796387 C-6.64699849 0.02690235 -6.64699849 0.02690235 -5.2744627 0.01561737 C-3.5163422 0.00354541 -1.75816194 0 0 0 Z " fill="#EFEFF2" transform="translate(177,56)"/>
<path d="M0 0 C1.32 0.33 2.64 0.66 4 1 C3.01 1 2.02 1 1 1 C1 1.66 1 2.32 1 3 C1.66 3 2.32 3 3 3 C3.05420701 5.56278699 3.09377007 8.12441483 3.125 10.6875 C3.15013672 11.7693457 3.15013672 11.7693457 3.17578125 12.87304688 C3.21391569 17.04876781 2.8789919 20.2494138 1 24 C1.66 24 2.32 24 3 24 C3 33.9 3 43.8 3 54 C19.83 54 36.66 54 54 54 C54 44.43 54 34.86 54 25 C54.66 25.33 55.32 25.66 56 26 C56 35.57 56 45.14 56 55 C37.85 55 19.7 55 1 55 C0.31697135 36.64360508 -0.16026223 18.36851681 0 0 Z " fill="#BA3A93" transform="translate(116,122)"/>
<path d="M0 0 C0.78375 0.04125 1.5675 0.0825 2.375 0.125 C3.58929978 13.07753102 3.58929978 13.07753102 0.76953125 17.83203125 C-2.69099679 21.33151458 -5.93005579 23.57013156 -10.625 25.125 C-11.615 25.125 -12.605 25.125 -13.625 25.125 C-12.82035848 17.85038378 -8.75511269 0.41691013 0 0 Z " fill="#F9B512" transform="translate(103.625,125.875)"/>
<path d="M0 0 C10.56 0 21.12 0 32 0 C29.09132226 8.72603323 25.03832108 16.82769158 18 23 C15.78515625 23.71875 15.78515625 23.71875 14 24 C15.38361869 19.57242019 17.84242262 16.37264785 20.66015625 12.76953125 C23.71621386 8.73339685 23 8.1064223 23 2 C15.74 1.67 8.48 1.34 1 1 C1.08691691 5.39679693 1.19381142 9.79154375 1.3125 14.1875 C1.33505859 15.43337891 1.35761719 16.67925781 1.38085938 17.96289062 C1.41630859 19.16494141 1.45175781 20.36699219 1.48828125 21.60546875 C1.51446533 22.71043701 1.54064941 23.81540527 1.56762695 24.95385742 C2.04415178 28.31105691 3.15696919 30.19616497 5 33 C4.76465469 36.64785231 2.6718036 39.80176703 1 43 C0.67 43 0.34 43 0 43 C0 28.81 0 14.62 0 0 Z " fill="#F3C452" transform="translate(58,126)"/>
<path d="M0 0 C0.66 0.99 1.32 1.98 2 3 C-9.88 3 -21.76 3 -34 3 C-24.47972575 -6.52027425 -11.76604964 -6.40810354 0 0 Z " fill="#FAF3F8" transform="translate(161,168)"/>
<path d="M0 0 C15.51 0 31.02 0 47 0 C47 5.61 47 11.22 47 17 C46.67 17 46.34 17 46 17 C46 12.05 46 7.1 46 2 C42.56221369 2.14062311 39.12486829 2.28726929 35.6875 2.4375 C34.71103516 2.47681641 33.73457031 2.51613281 32.72851562 2.55664062 C31.79072266 2.59853516 30.85292969 2.64042969 29.88671875 2.68359375 C29.02264404 2.72025146 28.15856934 2.75690918 27.26831055 2.79467773 C24.8352174 2.92747354 24.8352174 2.92747354 22 4 C22 3.34 22 2.68 22 2 C15.07 2 8.14 2 1 2 C1 5.96 1 9.92 1 14 C0.67 14 0.34 14 0 14 C0 9.38 0 4.76 0 0 Z " fill="#BC3998" transform="translate(121,126)"/>
<path d="M0 0 C1.98 0 3.96 0 6 0 C4.60317052 8.4849961 -0.55855492 16.35112646 -7 22 C-9.21484375 22.71875 -9.21484375 22.71875 -11 23 C-9.63439827 18.63007446 -7.23951393 15.50238634 -4.4375 11.96484375 C-1.6023154 8.08957784 -0.64828905 4.75411971 0 0 Z " fill="#F8B40A" transform="translate(83,127)"/>
<path d="M0 0 C0.66 0 1.32 0 2 0 C2 15.84 2 31.68 2 48 C-1.3 48 -4.6 48 -8 48 C-8 47.67 -8 47.34 -8 47 C-5.36 47 -2.72 47 0 47 C-0.01474869 46.42592911 -0.02949738 45.85185822 -0.04469299 45.26039124 C-0.19663377 39.30760406 -0.34149862 33.35467508 -0.48217773 27.40161133 C-0.53568392 25.17728264 -0.59101963 22.9529972 -0.64819336 20.72875977 C-0.7298646 17.53932018 -0.80504388 14.34978501 -0.87890625 11.16015625 C-0.90594131 10.15912369 -0.93297638 9.15809113 -0.96083069 8.12672424 C-0.98092697 7.20584518 -1.00102325 6.28496613 -1.02172852 5.33618164 C-1.04171402 4.52121719 -1.06169952 3.70625275 -1.08229065 2.86659241 C-1 1 -1 1 0 0 Z " fill="#44449B" transform="translate(167,64)"/>
<path d="M0 0 C1.32 0.33 2.64 0.66 4 1 C3.01 1 2.02 1 1 1 C1 1.66 1 2.32 1 3 C1.66 3 2.32 3 3 3 C3.02710123 5.5625718 3.04688771 8.12485365 3.0625 10.6875 C3.07087891 11.40873047 3.07925781 12.12996094 3.08789062 12.87304688 C3.10102753 15.75002887 3.11082883 18.48828253 2.5 21.30859375 C1.88854545 24.59993896 1.88809857 27.70316343 1.90234375 31.05078125 C1.9037587 31.70958786 1.90517365 32.36839447 1.90663147 33.04716492 C1.912195 35.13565762 1.92474053 37.22404011 1.9375 39.3125 C1.94251972 40.73502449 1.9470818 42.15755066 1.95117188 43.58007812 C1.96215243 47.05342077 1.97939165 50.52669961 2 54 C1.67 54 1.34 54 1 54 C0.27005816 35.98635554 -0.15595184 18.03043176 0 0 Z " fill="#B6278C" transform="translate(116,122)"/>
<path d="M0 0 C3.96 0 7.92 0 12 0 C11.67 17.82 11.34 35.64 11 54 C10.67 54 10.34 54 10 54 C10 37.17 10 20.34 10 3 C7.36 3 4.72 3 2 3 C1.34 2.67 0.68 2.34 0 2 C0 1.34 0 0.68 0 0 Z " fill="#F2BC37" transform="translate(98,122)"/>
<path d="M0 0 C1.32 1.32 2.64 2.64 4 4 C-0.24379233 15.4221219 -0.24379233 15.4221219 -4 20 C-6.25 20.875 -6.25 20.875 -8 21 C-7.690625 20.29875 -7.38125 19.5975 -7.0625 18.875 C-5.96697322 15.91063343 -5.43577008 13.12301892 -5 10 C-4.34 10 -3.68 10 -3 10 C-2.01 6.7 -1.02 3.4 0 0 Z " fill="#A5A5CB" transform="translate(159,70)"/>
<path d="M0 0 C0.33 0 0.66 0 1 0 C1.01981934 0.55461914 1.03963867 1.10923828 1.06005859 1.68066406 C1.15557651 4.20423693 1.26514567 6.72701224 1.375 9.25 C1.4059375 10.12269531 1.436875 10.99539062 1.46875 11.89453125 C1.50742188 12.73886719 1.54609375 13.58320313 1.5859375 14.453125 C1.6173584 15.22817383 1.6487793 16.00322266 1.68115234 16.80175781 C2.03026506 19.20865742 2.80551104 20.89602295 4 23 C3.34 23.66 2.68 24.32 2 25 C1.62948007 27.3245339 1.62948007 27.3245339 1.5859375 30.0078125 C1.54726562 30.99394531 1.50859375 31.98007813 1.46875 32.99609375 C1.4378125 34.02863281 1.406875 35.06117188 1.375 36.125 C1.33632812 37.16527344 1.29765625 38.20554688 1.2578125 39.27734375 C1.16335234 41.85138311 1.07778786 44.42541155 1 47 C0.67 47 0.34 47 0 47 C-0.33 38.09 -0.66 29.18 -1 20 C-1.66 19.67 -2.32 19.34 -3 19 C-2.67 17.35 -2.34 15.7 -2 14 C-1.34 14 -0.68 14 0 14 C0 9.38 0 4.76 0 0 Z " fill="#E4C1DA" transform="translate(120,127)"/>
<path d="M0 0 C19.14 0 38.28 0 58 0 C58 0.33 58 0.66 58 1 C53.71 1 49.42 1 45 1 C45.495 2.485 45.495 2.485 46 4 C44.68 4 43.36 4 42 4 C42 3.34 42 2.68 42 2 C28.14 1.67 14.28 1.34 0 1 C0 0.67 0 0.34 0 0 Z " fill="#F8EFCB" transform="translate(53,121)"/>
<path d="M0 0 C6.91895619 -0.24710558 13.06147771 0.04098514 19 4 C14.83150871 6.08811252 12.22153548 6.02184218 7.6875 5.125 C6.08455078 4.81949219 6.08455078 4.81949219 4.44921875 4.5078125 C3.64097656 4.34023437 2.83273438 4.17265625 2 4 C2.33 3.34 2.66 2.68 3 2 C2.01 1.34 1.02 0.68 0 0 Z " fill="#B8298F" transform="translate(140,160)"/>
<path d="M0 0 C0.66 0.33 1.32 0.66 2 1 C1.01 2.485 1.01 2.485 0 4 C14.19 4 28.38 4 43 4 C43 4.33 43 4.66 43 5 C27.49 5 11.98 5 -4 5 C-2.68 3.35 -1.36 1.7 0 0 Z " fill="#F3B625" transform="translate(62,169)"/>
<path d="M0 0 C0.33 0.66 0.66 1.32 1 2 C1.99 2.33 2.98 2.66 4 3 C2.76110404 4.48847937 1.5084328 5.96550105 0.25 7.4375 C-0.79414062 8.67306641 -0.79414062 8.67306641 -1.859375 9.93359375 C-4.01343015 12.01296451 -5.08310781 12.63867326 -8 13 C-6.40956621 7.91061189 -3.2553049 4.12543357 0 0 Z " fill="#F6B81E" transform="translate(80,137)"/>
<path d="M0 0 C0.99 0.495 0.99 0.495 2 1 C3.26229508 5.47540984 3.26229508 5.47540984 2 8 C1.84355828 10.55106029 1.74178611 13.07918663 1.68359375 15.6328125 C1.66281265 16.38464813 1.64203156 17.13648376 1.62062073 17.91110229 C1.55517295 20.31564085 1.49626262 22.72028967 1.4375 25.125 C1.39431023 26.75391771 1.35069579 28.38282422 1.30664062 30.01171875 C1.19949649 34.00769915 1.09821567 38.00379059 1 42 C0.67 42 0.34 42 0 42 C0 28.14 0 14.28 0 0 Z " fill="#3C3995" transform="translate(123,68)"/>
<path d="M0 0 C0.66 0.33 1.32 0.66 2 1 C2 11.56 2 22.12 2 33 C1.67 33 1.34 33 1 33 C1 23.1 1 13.2 1 3 C-0.65 3.66 -2.3 4.32 -4 5 C-2.68 3.35 -1.36 1.7 0 0 Z " fill="#F7F1D1" transform="translate(105,141)"/>
<path d="M0 0 C0.66 0 1.32 0 2 0 C2.22155127 2.93705131 2.42774197 5.87380363 2.625 8.8125 C2.68945312 9.64587891 2.75390625 10.47925781 2.8203125 11.33789062 C2.871875 12.14033203 2.9234375 12.94277344 2.9765625 13.76953125 C3.02893066 14.50792236 3.08129883 15.24631348 3.13525391 16.00708008 C3 18 3 18 1 21 C0 20 0 20 -0.11352539 18.05053711 C-0.10567017 16.8015564 -0.10567017 16.8015564 -0.09765625 15.52734375 C-0.09443359 14.62822266 -0.09121094 13.72910156 -0.08789062 12.80273438 C-0.07951172 11.85720703 -0.07113281 10.91167969 -0.0625 9.9375 C-0.05798828 8.98810547 -0.05347656 8.03871094 -0.04882812 7.06054688 C-0.0370011 4.70696935 -0.02052025 2.35351523 0 0 Z " fill="#B7308E" transform="translate(170,123)"/>
<path d="M0 0 C1.65 0.33 3.3 0.66 5 1 C5 1.99 5 2.98 5 4 C4.525625 4.45375 4.05125 4.9075 3.5625 5.375 C1.55416651 7.46366683 1.38130476 9.1783448 1 12 C0.01 11.34 -0.98 10.68 -2 10 C-1.34 6.7 -0.68 3.4 0 0 Z " fill="#F4E6F0" transform="translate(158,136)"/>
<path d="M0 0 C2.0625 0.4375 2.0625 0.4375 4 1 C3.67 3.31 3.34 5.62 3 8 C2.01 7.67 1.02 7.34 0 7 C-0.38133299 5.0085944 -0.71325582 3.00720923 -1 1 C-0.67 0.67 -0.34 0.34 0 0 Z " fill="#F3E5F0" transform="translate(143,130)"/>
<path d="M0 0 C2.0625 1.75 2.0625 1.75 4 4 C3.9375 6.125 3.9375 6.125 3 8 C2.01 8.66 1.02 9.32 0 10 C0 6.7 0 3.4 0 0 Z " fill="#F8B512" transform="translate(59,155)"/>
<path d="M0 0 C3.96 0 7.92 0 12 0 C11.67 1.32 11.34 2.64 11 4 C11 3.34 11 2.68 11 2 C6.34947128 1.73067479 6.34947128 1.73067479 2 3 C1.34 2.67 0.68 2.34 0 2 C0 1.34 0 0.68 0 0 Z " fill="#F6BA21" transform="translate(98,122)"/>
<path d="M0 0 C1.98 0.495 1.98 0.495 4 1 C3.67 2.32 3.34 3.64 3 5 C1.68 5 0.36 5 -1 5 C-0.67 3.35 -0.34 1.7 0 0 Z " fill="#F7EBF3" transform="translate(128,134)"/>
<path d="M0 0 C0.66 0.33 1.32 0.66 2 1 C2 3.64 2 6.28 2 9 C0.35 9.66 -1.3 10.32 -3 11 C-2.690625 10.29875 -2.38125 9.5975 -2.0625 8.875 C-0.96697322 5.91063343 -0.43577008 3.12301892 0 0 Z " fill="#CDCDDC" transform="translate(154,80)"/>
<path d="M0 0 C2.64 0 5.28 0 8 0 C7.34 1.32 6.68 2.64 6 4 C4.68 3.67 3.36 3.34 2 3 C2.33 2.67 2.66 2.34 3 2 C2.01 1.34 1.02 0.68 0 0 Z " fill="#C1519E" transform="translate(140,160)"/>
</svg>
